<?xml version="1.0" encoding="UTF-8"?>
<!DOCTYPE svg PUBLIC "-//W3C//DTD SVG 1.1//EN" "http://www.w3.org/Graphics/SVG/1.1/DTD/svg11.dtd">
<!-- Creator: CorelDRAW 2020 (64-Bit) -->
<svg xmlns="http://www.w3.org/2000/svg" xml:space="preserve" width="210mm" height="297mm" version="1.1" style="shape-rendering:geometricPrecision; text-rendering:geometricPrecision; image-rendering:optimizeQuality; fill-rule:evenodd; clip-rule:evenodd"
viewBox="0 0 2100000 2970000"
 xmlns:xlink="http://www.w3.org/1999/xlink"
 xmlns:xodm="http://www.corel.com/coreldraw/odm/2003">
 <defs>
  <style type="text/css">
   <![CDATA[
    .fil4 {fill:none}
    .fil8 {fill:#03658C}
    .fil1 {fill:#03658C}
    .fil7 {fill:#0396A6}
    .fil2 {fill:#0396A6}
    .fil6 {fill:#6BE5F2}
    .fil5 {fill:#B6F2EC}
    .fil3 {fill:#03658C;fill-rule:nonzero}
    .fil0 {fill:url(#id0)}
   ]]>
  </style>
  <linearGradient id="id0" gradientUnits="userSpaceOnUse" x1="1017735" y1="1861886" x2="1464706" y2="1168680">
   <stop offset="0" style="stop-opacity:1; stop-color:#06323F"/>
   <stop offset="0.239216" style="stop-opacity:1; stop-color:#03658C"/>
   <stop offset="0.478431" style="stop-opacity:1; stop-color:#0396A6"/>
   <stop offset="0.670588" style="stop-opacity:1; stop-color:#6BE5F2"/>
   <stop offset="1" style="stop-opacity:1; stop-color:#B6F2EC"/>
  </linearGradient>
 </defs>
 <g id="Capa_x0020_1">
  <metadata id="CorelCorpID_0Corel-Layer"/>
  <g id="_2808401985360">
   <path class="fil0" d="M656892 1485052c0,-216713 175681,-392395 392395,-392395 216714,0 392395,175682 392395,392395 0,216714 -175681,392395 -392395,392395 -216714,0 -392395,-175681 -392395,-392395zm815757 0c0,-233816 -189545,-423362 -423362,-423362 -233817,0 -423363,189546 -423363,423362 0,233817 189546,423363 423363,423363 233817,0 423362,-189546 423362,-423363z"/>
   <g>
    <path class="fil1" d="M1151994 1579869c0,13741 -45984,24881 -102708,24881 -56724,0 -102708,-11140 -102708,-24881 0,-3731 3389,-7271 9463,-10447 -17122,5046 -27401,11506 -27401,18548 0,16141 54015,29227 120646,29227 66631,0 120646,-13086 120646,-29227 0,-7042 -10280,-13502 -27402,-18548 6074,3176 9464,6716 9464,10447z"/>
    <path class="fil2" d="M1190877 1596126c0,18944 -63392,34301 -141591,34301 -78199,0 -141592,-15357 -141592,-34301 0,-5144 4674,-10023 13047,-14401 -23604,6956 -37775,15861 -37775,25569 0,22252 74464,40291 166320,40291 91856,0 166320,-18039 166320,-40291 0,-9708 -14171,-18613 -37775,-25569 8373,4378 13046,9257 13046,14401z"/>
    <g>
     <path class="fil3" d="M807211 1740324c-553,123 -1337,276 -2351,461 -1014,184 -2105,276 -3272,276 -2336,0 -3980,-430 -4932,-1290 -953,-861 -1429,-2305 -1429,-4333l0 -50976c492,-123 1275,-277 2351,-461 1075,-185 2135,-277 3180,-277 2212,0 3841,400 4886,1198 1044,799 1567,2274 1567,4425l0 18160 23045 0 0 -23045c492,-123 1275,-277 2351,-461 1075,-185 2135,-277 3180,-277 2212,0 3841,415 4886,1245 1044,829 1567,2319 1567,4470l0 50885c-553,123 -1337,276 -2351,461 -1014,184 -2105,276 -3272,276 -2336,0 -3979,-430 -4932,-1290 -953,-861 -1429,-2305 -1429,-4333l0 -18344 -23045 0 0 23230z"/>
     <path id="1" class="fil3" d="M913958 1712393c0,4793 -707,9034 -2121,12721 -1413,3687 -3364,6775 -5853,9264 -2489,2489 -5454,4363 -8896,5623 -3441,1260 -7159,1890 -11154,1890 -3994,0 -7712,-630 -11154,-1890 -3441,-1260 -6406,-3134 -8895,-5623 -2489,-2489 -4440,-5577 -5854,-9264 -1413,-3687 -2120,-7928 -2120,-12721 0,-4794 722,-9019 2166,-12675 1444,-3657 3426,-6730 5946,-9219 2520,-2488 5485,-4363 8896,-5623 3410,-1259 7082,-1889 11015,-1889 3933,0 7605,630 11016,1889 3411,1260 6376,3135 8896,5623 2519,2489 4501,5562 5945,9219 1445,3656 2167,7881 2167,12675zm-12261 0c0,-6392 -1428,-11262 -4286,-14611 -2858,-3349 -6683,-5024 -11477,-5024 -4732,0 -8526,1659 -11384,4978 -2858,3318 -4287,8204 -4287,14657 0,6452 1414,11338 4241,14657 2827,3318 6637,4977 11430,4977 4794,0 8619,-1659 11477,-4977 2858,-3319 4286,-8205 4286,-14657z"/>
     <path id="2" class="fil3" d="M941705 1740324c-553,123 -1337,276 -2351,461 -1014,184 -2105,276 -3272,276 -2336,0 -3980,-430 -4932,-1290 -953,-861 -1429,-2305 -1429,-4333l0 -46275c0,-1168 307,-2059 922,-2673 614,-615 1475,-1107 2581,-1475 1966,-676 4286,-1153 6960,-1429 2673,-277 5423,-415 8250,-415 8112,0 14196,1675 18252,5024 4056,3349 6084,7974 6084,13873 0,3872 -1014,7237 -3042,10094 -2028,2858 -4824,5055 -8389,6591 2704,3503 5301,6837 7790,10002 2489,3165 4348,5638 5577,7421 -492,1597 -1352,2842 -2581,3733 -1229,891 -2581,1337 -4056,1337 -1905,0 -3365,-431 -4379,-1291 -1014,-860 -2013,-2028 -2996,-3503l-10416 -15579 -8573 0 0 19451zm7374 -28853c3503,0 6315,-768 8435,-2305 2120,-1536 3180,-3871 3180,-7006 0,-6206 -4148,-9310 -12444,-9310 -1229,0 -2412,62 -3549,184 -1137,123 -2197,246 -3181,369l0 18068 7559 0z"/>
     <path id="3" class="fil3" d="M996000 1741061c-2336,0 -3995,-430 -4978,-1290 -983,-861 -1475,-2305 -1475,-4333l0 -50976c553,-123 1352,-277 2397,-461 1044,-185 2089,-277 3134,-277 2212,0 3841,400 4886,1198 1044,799 1567,2274 1567,4425l0 50977c-553,123 -1337,276 -2351,461 -1014,184 -2074,276 -3180,276z"/>
     <path id="4" class="fil3" d="M1019783 1740416c-799,-676 -1444,-1536 -1936,-2581 -492,-1045 -737,-2212 -737,-3503 0,-1229 292,-2427 875,-3595 584,-1168 1306,-2305 2167,-3411l25811 -33093 -26825 0c-308,-553 -600,-1229 -876,-2028 -277,-799 -415,-1721 -415,-2766 0,-1720 384,-3011 1152,-3871 769,-861 1859,-1291 3273,-1291l35306 0c1966,1659 2949,3749 2949,6269 0,1229 -261,2396 -783,3502 -523,1107 -1214,2213 -2074,3319l-25903 33186 28023 0c307,553 614,1229 922,2028 307,798 461,1720 461,2765 0,1721 -384,2996 -1153,3826 -768,829 -1828,1244 -3180,1244l-37057 0z"/>
     <path id="5" class="fil3" d="M1128281 1712393c0,4793 -707,9034 -2121,12721 -1413,3687 -3364,6775 -5853,9264 -2489,2489 -5454,4363 -8896,5623 -3441,1260 -7159,1890 -11154,1890 -3994,0 -7712,-630 -11154,-1890 -3441,-1260 -6406,-3134 -8895,-5623 -2489,-2489 -4440,-5577 -5854,-9264 -1413,-3687 -2120,-7928 -2120,-12721 0,-4794 722,-9019 2166,-12675 1444,-3657 3426,-6730 5946,-9219 2520,-2488 5485,-4363 8896,-5623 3410,-1259 7082,-1889 11015,-1889 3933,0 7605,630 11016,1889 3411,1260 6376,3135 8896,5623 2519,2489 4501,5562 5945,9219 1445,3656 2167,7881 2167,12675zm-12261 0c0,-6392 -1428,-11262 -4286,-14611 -2858,-3349 -6683,-5024 -11477,-5024 -4732,0 -8526,1659 -11384,4978 -2858,3318 -4287,8204 -4287,14657 0,6452 1414,11338 4241,14657 2827,3318 6637,4977 11430,4977 4794,0 8619,-1659 11477,-4977 2858,-3319 4286,-8205 4286,-14657z"/>
     <path id="6" class="fil3" d="M1150220 1741061c-2274,0 -3871,-415 -4793,-1244 -922,-830 -1383,-2228 -1383,-4194l0 -49133c676,-861 1675,-1537 2996,-2028 1321,-492 2781,-738 4379,-738 1905,0 3610,338 5116,1014 1505,676 2842,2028 4010,4056l13274 23875c1229,2213 2412,4502 3549,6868 1137,2366 2135,4532 2996,6499l368 -93c-307,-3625 -507,-7144 -599,-10554 -92,-3411 -138,-6776 -138,-10094l0 -20926c492,-123 1244,-261 2258,-414 1014,-154 2044,-231 3089,-231 2273,0 3887,415 4839,1245 953,829 1429,2227 1429,4194l0 49778c-676,676 -1644,1198 -2904,1567 -1260,369 -2750,553 -4471,553 -1843,0 -3518,-322 -5024,-968 -1505,-645 -2842,-1982 -4009,-4010l-13275 -23875c-1229,-2151 -2412,-4440 -3549,-6867 -1137,-2428 -2135,-4625 -2996,-6591l-553 92c308,3380 507,6852 599,10416 93,3565 139,6945 139,10141l0 20925c-492,123 -1229,276 -2213,461 -983,184 -2028,276 -3134,276z"/>
     <path id="7" class="fil3" d="M1249777 1684462c307,491 599,1152 875,1981 277,830 415,1737 415,2720 0,1659 -384,2919 -1152,3779 -768,861 -1828,1291 -3180,1291l-12721 0 0 46091c-492,123 -1260,276 -2305,461 -1045,184 -2120,276 -3226,276 -2336,0 -3995,-430 -4978,-1290 -983,-861 -1475,-2305 -1475,-4333l0 -41205 -15487 0c-307,-553 -599,-1229 -875,-2028 -277,-799 -415,-1690 -415,-2673 0,-1721 384,-2996 1152,-3826 768,-830 1828,-1244 3180,-1244l40192 0z"/>
     <path id="8" class="fil3" d="M1271163 1740600c-1967,0 -3519,-583 -4656,-1751 -1137,-1168 -1705,-2735 -1705,-4701l0 -43326c0,-1966 568,-3518 1705,-4655 1137,-1137 2689,-1705 4656,-1705l30512 0c307,491 584,1136 829,1935 246,799 369,1690 369,2674 0,1597 -369,2827 -1106,3687 -737,860 -1751,1290 -3042,1290l-22308 0 0 13090 22492 0c308,492 600,1122 876,1890 277,768 415,1644 415,2627 0,3319 -1414,4978 -4240,4978l-19543 0 0 14288 25627 0c307,492 599,1153 875,1982 277,830 415,1736 415,2720 0,3318 -1413,4977 -4240,4977l-27931 0z"/>
     <path class="fil3" d="M888410 1789261c1686,0 2922,-327 3707,-981 785,-654 1177,-1476 1177,-2464 0,-902 -305,-1621 -916,-2159 -610,-538 -1541,-996 -2791,-1374l-2791 -872c-1105,-349 -2108,-742 -3009,-1178 -902,-436 -1672,-952 -2312,-1548 -639,-596 -1134,-1294 -1483,-2093 -349,-800 -523,-1752 -523,-2857 0,-2355 887,-4223 2660,-5604 1774,-1381 4202,-2072 7284,-2072 1221,0 2348,95 3380,284 1032,189 1926,450 2682,785 756,334 1345,748 1766,1243 422,494 633,1046 633,1657 0,581 -138,1083 -415,1505 -276,421 -617,763 -1025,1024 -697,-494 -1620,-923 -2769,-1286 -1148,-364 -2406,-545 -3772,-545 -1512,0 -2661,269 -3446,807 -785,537 -1177,1272 -1177,2202 0,756 269,1337 806,1745 538,407 1389,799 2552,1177l2486 785c2529,756 4492,1788 5887,3097 1396,1308 2094,3082 2094,5320 0,1192 -233,2283 -698,3271 -465,989 -1141,1839 -2028,2552 -887,712 -1992,1265 -3315,1657 -1322,393 -2827,589 -4513,589 -1338,0 -2566,-116 -3686,-349 -1119,-233 -2086,-545 -2900,-938 -814,-392 -1447,-857 -1897,-1395 -451,-538 -676,-1127 -676,-1767 0,-668 196,-1243 589,-1722 392,-480 850,-836 1373,-1069 727,640 1687,1228 2879,1766 1192,538 2588,807 4187,807z"/>
     <path id="1" class="fil3" d="M972716 1786993l-9769 0c-320,1076 -662,2196 -1025,3359 -364,1163 -662,2122 -894,2878 -291,116 -604,218 -938,305 -334,88 -749,131 -1243,131 -988,0 -1759,-196 -2311,-589 -553,-392 -829,-952 -829,-1679 0,-349 51,-690 153,-1025 101,-334 225,-719 370,-1155 233,-815 545,-1796 938,-2944 392,-1149 814,-2399 1265,-3751 450,-1352 937,-2748 1461,-4187 523,-1439 1025,-2835 1504,-4187 480,-1352 945,-2616 1396,-3794 451,-1178 836,-2188 1156,-3031 378,-204 937,-407 1679,-611 741,-203 1490,-305 2246,-305 1018,0 1948,153 2791,458 843,305 1381,792 1614,1461 581,1599 1221,3438 1919,5517 698,2079 1403,4223 2115,6433 712,2210 1403,4376 2072,6498 668,2123 1264,4027 1788,5714 -291,319 -691,588 -1200,806 -508,218 -1112,328 -1809,328 -1018,0 -1738,-182 -2159,-546 -422,-363 -749,-937 -982,-1722l-1308 -4362zm-4885 -15613c-261,727 -545,1541 -850,2442 -305,902 -625,1839 -960,2813 -334,974 -676,1963 -1024,2966 -349,1003 -684,1984 -1004,2944l7589 0 -3533 -11165 -218 0z"/>
     <path id="2" class="fil3" d="M1041190 1793317c-930,0 -1664,-276 -2202,-828 -538,-553 -807,-1294 -807,-2225l0 -23507c233,-58 604,-131 1112,-218 509,-87 1011,-131 1505,-131 1047,0 1817,189 2311,567 495,378 742,1076 742,2093l0 19583 11208 0c146,232 291,545 437,937 145,393 218,822 218,1287 0,785 -182,1388 -546,1810 -363,421 -865,632 -1504,632l-12474 0z"/>
     <path id="3" class="fil3" d="M1124362 1793928c-1744,0 -3300,-240 -4667,-720 -1366,-480 -2522,-1163 -3467,-2050 -945,-886 -1664,-1948 -2159,-3183 -494,-1236 -741,-2624 -741,-4165l0 -17053c233,-58 603,-131 1112,-218 509,-87 1010,-131 1505,-131 1046,0 1810,189 2289,567 480,378 720,1076 720,2093l0 14524c0,1831 509,3234 1527,4208 1017,974 2311,1461 3881,1461 1570,0 2864,-487 3882,-1461 1017,-974 1526,-2377 1526,-4208l0 -16835c262,-58 640,-131 1134,-218 494,-87 989,-131 1483,-131 1047,0 1817,189 2311,567 495,378 742,1076 742,2093l0 14742c0,1541 -247,2929 -742,4165 -494,1235 -1221,2297 -2180,3183 -960,887 -2123,1570 -3489,2050 -1367,480 -2922,720 -4667,720z"/>
     <path id="4" class="fil3" d="M1213378 1779884c0,-1570 -218,-2929 -654,-4077 -436,-1149 -1039,-2094 -1810,-2835 -770,-742 -1686,-1294 -2747,-1658 -1062,-363 -2217,-545 -3468,-545 -668,0 -1272,22 -1809,66 -538,43 -1054,94 -1549,152l0 17925c495,117 1054,197 1679,240 625,44 1243,66 1854,66 2704,0 4797,-785 6280,-2355 1483,-1571 2224,-3897 2224,-6979zm5801 -43c0,2355 -342,4412 -1025,6171 -683,1759 -1650,3213 -2900,4361 -1250,1149 -2755,2014 -4514,2595 -1759,582 -3714,873 -5866,873 -494,0 -1032,-8 -1614,-22 -581,-15 -1185,-58 -1810,-131 -625,-73 -1250,-167 -1875,-284 -625,-116 -1214,-276 -1766,-479 -1396,-524 -2094,-1396 -2094,-2617l0 -21370c0,-524 146,-931 436,-1222 291,-290 698,-523 1221,-697 1076,-378 2247,-618 3511,-720 1265,-102 2464,-153 3598,-153 2181,0 4180,284 5997,851 1817,567 3366,1417 4645,2551 1279,1134 2275,2559 2987,4274 713,1716 1069,3722 1069,6019z"/>
    </g>
    <g>
     <path class="fil4" d="M1087614 1227903c44997,-44998 117952,-44998 162950,0 44998,44998 44998,117953 0,162951l-189455 189454c-8027,7684 -15910,7684 -23647,0l-189454 -189453c-44998,-44999 -44998,-117954 0,-162952 44997,-44997 117952,-44997 162951,0l38327 38328 38328 -38328z"/>
     <path class="fil4" d="M818643 1277821c120409,-83270 110557,55840 216414,59921 132529,-6298 93830,-124279 240303,-72971"/>
     <path class="fil4" d="M874298 1417144c276023,105435 259570,-130099 408913,-123709"/>
     <path class="fil4" d="M995955 1538802c60562,-25008 90790,-104230 181685,-75024"/>
     <path class="fil5" d="M818643 1277821c120409,-83270 110557,55840 216414,59921 132529,-6298 93830,-124279 240304,-72971 -5620,-13402 -13885,-25957 -24797,-36868 -44998,-44998 -117953,-44998 -162950,0l-38328 38328 -38327 -38328c-44999,-44997 -117954,-44997 -162951,0 -14390,14390 -24178,31639 -29365,49918z"/>
     <path class="fil6" d="M1035057 1337742c-105857,-4081 -96005,-143191 -216413,-59921 -11032,38881 -1244,82424 29364,113034l26290 26289c276023,105435 259570,-130099 408913,-123709 -1359,-9783 -3976,-19425 -7850,-28664 -146474,-51308 -107775,66673 -240304,72971z"/>
     <path class="fil7" d="M1283211 1293435c-149343,-6390 -132890,229144 -408913,123709l121657 121658c60562,-25008 90790,-104230 181685,-75024l72924 -72924c26565,-26565 37447,-62872 32647,-97419z"/>
     <path class="fil8" d="M1177640 1463778c-90895,-29206 -121123,50016 -181685,75024l41507 41506c7737,7684 15620,7684 23647,0l116531 -116530z"/>
    </g>
   </g>
  </g>
 </g>
</svg>
