<?xml version="1.0" encoding="UTF-8"?>
<!DOCTYPE svg PUBLIC "-//W3C//DTD SVG 1.1//EN" "http://www.w3.org/Graphics/SVG/1.1/DTD/svg11.dtd">
<!-- Creator: CorelDRAW 2020 (64-Bit) -->
<svg xmlns="http://www.w3.org/2000/svg" xml:space="preserve" width="170px" height="170px" version="1.1" style="shape-rendering:geometricPrecision; text-rendering:geometricPrecision; image-rendering:optimizeQuality; fill-rule:evenodd; clip-rule:evenodd"
viewBox="0 0 2100000 2970000"
 xmlns:xlink="http://www.w3.org/1999/xlink"
 xmlns:xodm="http://www.corel.com/coreldraw/odm/2003">
 <defs>
  <style type="text/css">
   <![CDATA[
    .str3 {stroke:#FEFEFE;stroke-width:10583;stroke-miterlimit:22.9256}
    .str1 {stroke:#03658C;stroke-width:2000;stroke-miterlimit:22.9256}
    .str2 {stroke:#03658C;stroke-width:762;stroke-miterlimit:22.9256}
    .str0 {stroke:#FEFEFE;stroke-width:3528;stroke-linejoin:round;stroke-miterlimit:22.9256}
    .fil1 {fill:none}
    .fil0 {fill:#03658C}
   ]]>
  </style>
 </defs>
 <g id="Capa_x0020_1">
  <metadata id="CorelCorpID_0Corel-Layer"/>
  <g id="_3176578787712">
   <path class="fil0 str0" d="M1219820 1749050c0,22816 -76351,41312 -170534,41312 -94183,0 -170534,-18496 -170534,-41312 0,-6195 5628,-12071 15713,-17345 -28429,8378 -45496,19104 -45496,30795 0,26802 89685,48528 200317,48528 110632,0 200317,-21726 200317,-48528 0,-11691 -17068,-22417 -45496,-30795 10084,5274 15713,11150 15713,17345z"/>
   <path class="fil0 str0" d="M1284380 1776043c0,31454 -105255,56952 -235094,56952 -129839,0 -235094,-25498 -235094,-56952 0,-8540 7759,-16641 21662,-23912 -39192,11550 -62721,26337 -62721,42455 0,36947 123638,66899 276153,66899 152515,0 276153,-29952 276153,-66899 0,-16118 -23529,-30905 -62721,-42455 13903,7271 21662,15372 21662,23912z"/>
   <path class="fil0 str1" d="M1112924 1164656c74712,-74714 195846,-74714 270559,0 74713,74713 74713,195845 0,270559l-314565 314565c-13329,12758 -26417,12758 -39264,0l-314564 -314564c-74713,-74715 -74713,-195847 0,-270560 74712,-74712 195844,-74712 270559,0l63637 63638 63638 -63638z"/>
   <path class="fil1 str1" d="M666333 1247539c199923,-138260 183566,92715 359328,99490 220047,-10456 155793,-206348 398992,-121158"/>
   <path class="fil1 str1" d="M758741 1478867c458300,175060 430983,-216014 678947,-205404"/>
   <path class="fil1 str1" d="M960737 1680864c100555,-41522 150746,-173060 301664,-124567"/>
   <path class="fil0 str2" d="M666333 1247539c199923,-138260 183566,92715 359328,99490 220047,-10456 155793,-206348 398994,-121158 -9331,-22253 -23055,-43098 -41172,-61215 -74713,-74714 -195847,-74714 -270559,0l-63638 63638 -63637 -63638c-74715,-74712 -195847,-74712 -270559,0 -23892,23892 -40145,52533 -48757,82883z"/>
   <path class="fil0 str2" d="M1025661 1347029c-175762,-6775 -159405,-237750 -359326,-99490 -18318,64557 -2066,136855 48755,187677l43651 43651c458300,175060 430983,-216014 678947,-205404 -2256,-16243 -6601,-32252 -13033,-47592 -243201,-85190 -178947,110702 -398994,121158z"/>
   <path class="fil0 str2" d="M1437688 1273463c-247964,-10610 -220647,380464 -678947,205404l201996 201997c100555,-41522 150746,-173060 301664,-124567l121082 -121082c44108,-44108 62176,-104391 54205,-161752z"/>
   <path class="fil0 str2" d="M1262401 1556297c-150918,-48493 -201109,83045 -301664,124567l68917 68916c12847,12758 25935,12758 39264,0l193483 -193483z"/>
   <path class="fil1 str3" d="M1112924 1164656c74712,-74714 195846,-74714 270559,0 18117,18117 31841,38963 41171,61215 6433,15341 10777,31349 13034,47592 7970,57361 -10099,117645 -54205,161752l-121082 121082 -193483 193483c-13329,12758 -26417,12758 -39264,0l-68916 -68916 -201997 -201997 -43651 -43651c-50820,-50822 -67072,-123120 -48756,-187677 8611,-30351 24863,-58990 48756,-82883 74712,-74712 195844,-74712 270559,0l63637 63638 63638 -63638z"/>
  </g>
 </g>
</svg>
